<svg xmlns="http://www.w3.org/2000/svg" viewBox="0 0 107.98 30"><g data-name="Group 10477"><g data-name="Aave Logo Colored"><g data-name="Group 4051" fill="#fff"><path d="M66.6 28.05L56.14 2.67a2.23 2.23 0 01-.13-.72 1.99 1.99 0 01.51-1.41A1.8 1.8 0 0157.91 0a1.88 1.88 0 011.08.36 2.29 2.29 0 01.74.95l9.95 24.83 9.95-24.83a2.29 2.29 0 01.75-.95A1.88 1.88 0 0181.46 0a1.8 1.8 0 011.38.54 1.99 1.99 0 01.52 1.41 2.23 2.23 0 01-.13.72L72.77 28.05A2.81 2.81 0 0170.15 30h-.93a2.81 2.81 0 01-2.62-1.95z" data-name="Path 2431"/><path d="M87.81 29.22a1.86 1.86 0 01-.54-1.36V2.16a1.96 1.96 0 01.54-1.4A1.79 1.79 0 0189.17.2h17a1.69 1.69 0 011.28.54 1.73 1.73 0 01.54 1.28 1.63 1.63 0 01-.54 1.26 1.8 1.8 0 01-1.29.52H91.13v9.36h13.52a1.69 1.69 0 011.28.54 1.77 1.77 0 01.54 1.28 1.63 1.63 0 01-.54 1.26 1.8 1.8 0 01-1.28.52H91.13v9.4h15.03a1.69 1.69 0 011.29.54 1.73 1.73 0 01.54 1.29 1.63 1.63 0 01-.54 1.26 1.8 1.8 0 01-1.29.51H89.17a1.68 1.68 0 01-1.36-.54z" data-name="Path 2432"/><path d="M58.51 27.33L48.04 1.95A2.81 2.81 0 0045.43 0h-.92a2.81 2.81 0 00-2.62 1.95l-4.55 11.06h-3.45a1.89 1.89 0 00-1.87 1.88v.02a1.89 1.89 0 001.87 1.88h1.85L31.4 27.33a2.23 2.23 0 00-.13.72 1.99 1.99 0 00.51 1.41 1.8 1.8 0 001.39.54 1.88 1.88 0 001.08-.36 2.29 2.29 0 00.74-.95l4.79-11.9h3.29a1.89 1.89 0 001.87-1.88v-.05a1.89 1.89 0 00-1.87-1.88h-1.78l3.68-9.12 9.95 24.83a2.29 2.29 0 00.74.95 1.88 1.88 0 001.08.36 1.8 1.8 0 001.4-.54 1.99 1.99 0 00.5-1.41 1.7 1.7 0 00-.12-.72z" data-name="Path 2433"/><path d="M27.25 27.33L16.79 1.95A2.81 2.81 0 0014.16 0h-.92a2.81 2.81 0 00-2.62 1.95L6.07 13.01H2.62a1.89 1.89 0 00-1.87 1.88v.02a1.89 1.89 0 001.87 1.88h1.85L.13 27.33a2.23 2.23 0 00-.13.72 1.99 1.99 0 00.51 1.41A1.8 1.8 0 001.9 30a1.88 1.88 0 001.08-.36 2.29 2.29 0 00.74-.95l4.79-11.9h3.31a1.89 1.89 0 001.88-1.88v-.05a1.89 1.89 0 00-1.88-1.88h-1.77l3.65-9.12 9.95 24.83a2.29 2.29 0 00.74.95 1.88 1.88 0 001.08.36 1.8 1.8 0 001.4-.54 1.99 1.99 0 00.5-1.41 1.7 1.7 0 00-.12-.72z" data-name="Path 2434"/></g></g></g></svg>