<?xml version="1.0" encoding="UTF-8"?> <!-- Generator: Adobe Illustrator 25.0.0, SVG Export Plug-In . SVG Version: 6.00 Build 0) --> <svg xmlns="http://www.w3.org/2000/svg" xmlns:xlink="http://www.w3.org/1999/xlink" version="1.1" id="Layer_1" x="0px" y="0px" viewBox="0 0 231 44" style="enable-background:new 0 0 231 44;" xml:space="preserve"> <style type="text/css"> .st0{fill-rule:evenodd;clip-rule:evenodd;fill:#15182B;} </style> <path class="st0" d="M25.7,31.8l-3.2-3.2c-1.2,1.1-2.4,2-3.7,2.7c-1.2,0.7-2.7,1-4.4,1c-1.3,0-2.6-0.3-3.7-0.8 c-1.1-0.5-2.1-1.2-2.9-2.1c-0.8-0.9-1.5-2-1.9-3.2c-0.5-1.2-0.7-2.5-0.7-3.9c0-1.4,0.2-2.7,0.7-3.9C6.3,17.1,7,16,7.8,15.1 c0.8-0.9,1.8-1.6,2.9-2.1c1.1-0.5,2.4-0.8,3.7-0.8c1.6,0,3,0.3,4.3,1c1.3,0.6,2.4,1.5,3.6,2.5l3.2-3.6c-0.7-0.6-1.4-1.2-2.1-1.8 c-0.7-0.5-1.6-1-2.4-1.4C20,8.5,19,8.2,18,8c-1.1-0.2-2.2-0.3-3.5-0.3c-2.1,0-4.1,0.4-5.9,1.1C6.9,9.6,5.3,10.6,4.1,12 c-1.3,1.3-2.3,2.9-3,4.6C0.4,18.4,0,20.2,0,22.2c0,2,0.4,3.9,1.1,5.7c0.7,1.8,1.7,3.3,3,4.6c1.3,1.3,2.8,2.3,4.5,3.1 c1.7,0.7,3.6,1.1,5.7,1.1c1.3,0,2.5-0.1,3.6-0.3c1.1-0.2,2.1-0.6,3-1c0.9-0.4,1.8-1,2.5-1.6C24.2,33.2,24.9,32.5,25.7,31.8z"></path> <path class="st0" d="M89.3,15.6c0-0.9,0.4-1.7,1.2-2.4c0.8-0.7,1.9-1,3.4-1c1.3,0,2.5,0.2,3.8,0.7c1.3,0.5,2.5,1.2,3.8,2.1l2.6-3.7 c-1.4-1.1-3-2-4.6-2.6c-1.6-0.6-3.5-0.9-5.5-0.9c-1.4,0-2.7,0.2-3.8,0.6c-1.2,0.4-2.2,0.9-3,1.7c-0.8,0.7-1.5,1.6-2,2.6 c-0.5,1-0.7,2.1-0.7,3.3c0,1.3,0.2,2.4,0.6,3.3c0.4,0.9,1,1.7,1.8,2.3c0.8,0.6,1.8,1.2,2.9,1.6c1.2,0.4,2.5,0.8,4,1.2 c1.3,0.3,2.4,0.6,3.2,0.9c0.8,0.3,1.4,0.6,1.9,0.9c0.5,0.3,0.8,0.7,1,1.1c0.2,0.4,0.3,0.9,0.3,1.4c0,1.1-0.4,2-1.3,2.6 c-0.9,0.6-2.1,1-3.6,1c-1.8,0-3.3-0.3-4.7-0.9c-1.4-0.6-2.8-1.5-4.1-2.7l-3,3.5c1.7,1.5,3.5,2.6,5.5,3.4c2,0.7,4,1.1,6.2,1.1 c1.5,0,2.8-0.2,4-0.6c1.2-0.4,2.3-0.9,3.1-1.6c0.9-0.7,1.5-1.6,2-2.6c0.5-1,0.7-2.2,0.7-3.6c0-1.2-0.2-2.2-0.6-3.1 c-0.4-0.9-1-1.6-1.7-2.3c-0.7-0.7-1.7-1.2-2.8-1.7c-1.1-0.5-2.4-0.9-3.9-1.2c-1.3-0.3-2.4-0.6-3.3-0.9c-0.9-0.3-1.5-0.6-2-1 c-0.5-0.3-0.8-0.7-1-1.1C89.4,16.7,89.3,16.2,89.3,15.6z"></path> <path class="st0" d="M143.9,16v20h4.9V8.1h-5.2L135,21.3l-8.5-13.2h-5.2V36h4.9V16.1l8.7,13.1h0.2L143.9,16z"></path> <path class="st0" d="M189.7,22.2c0,1.4-0.2,2.7-0.7,3.9c-0.5,1.2-1.1,2.3-1.9,3.2c-0.8,0.9-1.8,1.6-3,2.1c-1.2,0.5-2.4,0.8-3.8,0.8 c-1.4,0-2.7-0.3-3.8-0.8c-1.2-0.5-2.2-1.3-3-2.2c-0.8-0.9-1.5-2-2-3.2c-0.5-1.2-0.7-2.5-0.7-3.9c0-1.4,0.2-2.7,0.7-3.9 c0.5-1.2,1.1-2.3,1.9-3.2c0.8-0.9,1.8-1.6,3-2.1c1.2-0.5,2.4-0.8,3.8-0.8c1.4,0,2.7,0.3,3.8,0.8c1.2,0.5,2.2,1.3,3,2.2 c0.8,0.9,1.5,2,2,3.2C189.5,19.6,189.7,20.9,189.7,22.2z M194.9,22.2c0-2-0.4-3.9-1.1-5.6c-0.7-1.8-1.7-3.3-3-4.6 c-1.3-1.3-2.8-2.3-4.6-3.1c-1.8-0.8-3.8-1.1-5.9-1.1c-2.2,0-4.1,0.4-5.9,1.2c-1.8,0.8-3.3,1.8-4.6,3.1s-2.3,2.9-3,4.6 c-0.7,1.8-1.1,3.6-1.1,5.6c0,2,0.4,3.8,1.1,5.6c0.7,1.8,1.7,3.3,3,4.6c1.3,1.3,2.8,2.3,4.6,3.1c1.8,0.8,3.8,1.1,5.9,1.1 c2.2,0,4.1-0.4,5.9-1.2c1.8-0.8,3.3-1.8,4.6-3.1c1.3-1.3,2.3-2.9,3-4.6C194.5,26,194.9,24.1,194.9,22.2z"></path> <path class="st0" d="M215.4,15.6c0-0.9,0.4-1.7,1.2-2.4c0.8-0.7,1.9-1,3.4-1c1.3,0,2.5,0.2,3.8,0.7c1.3,0.5,2.5,1.2,3.8,2.1l2.6-3.7 c-1.4-1.1-3-2-4.6-2.6c-1.6-0.6-3.5-0.9-5.5-0.9c-1.4,0-2.7,0.2-3.8,0.6c-1.2,0.4-2.2,0.9-3,1.7c-0.8,0.7-1.5,1.6-2,2.6 c-0.5,1-0.7,2.1-0.7,3.3c0,1.3,0.2,2.4,0.6,3.3c0.4,0.9,1,1.7,1.8,2.3c0.8,0.6,1.8,1.2,2.9,1.6c1.2,0.4,2.5,0.8,4,1.2 c1.3,0.3,2.4,0.6,3.2,0.9c0.8,0.3,1.4,0.6,1.9,0.9c0.5,0.3,0.8,0.7,1,1.1c0.2,0.4,0.3,0.9,0.3,1.4c0,1.1-0.4,2-1.3,2.6 c-0.9,0.6-2.1,1-3.6,1c-1.8,0-3.3-0.3-4.7-0.9c-1.4-0.6-2.8-1.5-4.1-2.7l-3,3.5c1.7,1.5,3.5,2.6,5.5,3.4c2,0.7,4,1.1,6.2,1.1 c1.5,0,2.8-0.2,4-0.6c1.2-0.4,2.3-0.9,3.1-1.6c0.9-0.7,1.5-1.6,2-2.6c0.5-1,0.7-2.2,0.7-3.6c0-1.2-0.2-2.2-0.6-3.1 c-0.4-0.9-1-1.6-1.7-2.3c-0.7-0.7-1.7-1.2-2.8-1.7c-1.1-0.5-2.4-0.9-3.9-1.2c-1.3-0.3-2.4-0.6-3.3-0.9c-0.9-0.3-1.5-0.6-2-1 c-0.5-0.3-0.8-0.7-1-1.1C215.5,16.7,215.4,16.2,215.4,15.6z"></path> <path class="st0" d="M59.1,13.7L45.7,27.1c-0.2-0.3-0.3-0.7-0.5-1c-0.5-1.2-0.7-2.5-0.7-3.9c0-1.4,0.2-2.6,0.7-3.9 c0.5-1.2,1.1-2.3,1.9-3.2c0.8-0.9,1.8-1.6,3-2.1c1.2-0.5,2.4-0.8,3.8-0.8c1.4,0,2.7,0.3,3.8,0.8C58.3,13.3,58.7,13.5,59.1,13.7z M57.9,31.4c-1.2,0.5-2.4,0.8-3.8,0.8c-1.4,0-2.7-0.3-3.8-0.8c-0.4-0.2-0.8-0.4-1.2-0.7l13.4-13.3c0.2,0.3,0.3,0.7,0.5,1 c0.5,1.2,0.7,2.5,0.7,3.9c0,1.4-0.2,2.6-0.7,3.9c-0.5,1.2-1.1,2.3-1.9,3.2C60.1,30.1,59.1,30.9,57.9,31.4z M59.9,35.5 c1.8-0.8,3.3-1.8,4.6-3.1c1.3-1.3,2.3-2.9,3-4.6c0.7-1.8,1.1-3.6,1.1-5.6c0-2-0.4-3.8-1.1-5.6c-0.4-1-1-2-1.6-2.9L74.7,5l-3.5-3.4 l-8.7,8.7c-0.8-0.5-1.6-1-2.5-1.4c-1.8-0.8-3.8-1.1-5.9-1.1c-2.2,0-4.1,0.4-5.9,1.2c-1.8,0.8-3.3,1.8-4.6,3.1 c-1.3,1.3-2.3,2.9-3,4.6c-0.7,1.8-1.1,3.6-1.1,5.6c0,2,0.4,3.8,1.1,5.6c0.4,1,1,2,1.6,2.9l-8.7,8.7l3.5,3.4l8.7-8.7 c0.8,0.5,1.6,1,2.5,1.4c1.8,0.8,3.8,1.1,5.9,1.1C56.2,36.7,58.2,36.3,59.9,35.5z"></path> </svg> 