<?xml version="1.0" encoding="UTF-8"?> <!-- Generator: Adobe Illustrator 25.0.0, SVG Export Plug-In . SVG Version: 6.00 Build 0) --> <svg xmlns="http://www.w3.org/2000/svg" xmlns:xlink="http://www.w3.org/1999/xlink" version="1.1" id="Layer_1" x="0px" y="0px" viewBox="0 0 228 60" style="enable-background:new 0 0 228 60;" xml:space="preserve"> <style type="text/css"> .st0{fill:none;} .st1{fill:#15182B;} </style> <rect class="st0" width="228" height="60"></rect> <g> <path class="st1" d="M114.1,12.5v35c0,0.3-0.2,0.5-0.5,0.5h-3.7c-1.7,0-3.3-0.9-4.2-2.3L89.2,20.3L89.7,33v14.6 c0,0.3-0.2,0.5-0.5,0.5h-4.8c-0.3,0-0.5-0.2-0.5-0.5V12.5c0-0.3,0.2-0.5,0.5-0.5H88c1.7,0,3.3,0.9,4.2,2.3l16.5,25.5L108.2,27V12.5 c0-0.3,0.2-0.5,0.5-0.5h4.8C113.9,12,114.1,12.2,114.1,12.5z"></path> <path class="st1" d="M163.3,48h-5.1c-0.3,0-0.6-0.3-0.5-0.7l13.5-34.9c0.1-0.3,0.4-0.5,0.7-0.5h6.4c0.3,0,0.6,0.2,0.7,0.5 l13.5,34.9c0.1,0.3-0.1,0.7-0.5,0.7H187c-0.2,0-0.4-0.1-0.5-0.3L175.7,19c-0.1-0.4-0.8-0.4-0.9,0l-10.9,28.7 C163.7,47.9,163.5,48,163.3,48z"></path> <path class="st1" d="M227.9,47.2l-10.1-12.9c5.7-1.1,9.1-4.9,9.1-10.9c0-6.8-4.4-11.4-12.3-11.4h-14.1c-0.4,0-0.7,0.3-0.7,0.7 c0,2.7,2.1,4.8,4.8,4.8h9.5c4.7,0,7,2.4,7,5.9c0,3.5-2.2,5.9-7,5.9h-13.5c-0.4,0-0.7,0.3-0.7,0.7v17.3c0,0.3,0.2,0.5,0.5,0.5h4.8 c0.3,0,0.5-0.2,0.5-0.5V34.6h5.5l8.8,11.5c0.9,1.3,2.4,1.9,4,1.9h3.7C227.9,48,228.1,47.5,227.9,47.2z"></path> <path class="st1" d="M148.1,12h-22.3c-0.4,0-0.7,0.3-0.7,0.7c0,2.7,2.2,4.9,4.9,4.9h18.1c0.3,0,0.5-0.2,0.5-0.5v-4.5 C148.6,12.2,148.4,12,148.1,12z M148.1,42.5h-16.7c-0.3,0-0.5-0.2-0.5-0.5v-9c0-0.3,0.2-0.5,0.5-0.5h15.4c0.3,0,0.5-0.2,0.5-0.5 v-4.5c0-0.3-0.2-0.5-0.5-0.5h-21c-0.4,0-0.7,0.3-0.7,0.7v19.7c0,0.4,0.3,0.7,0.7,0.7h22.3c0.3,0,0.5-0.2,0.5-0.5v-4.5 C148.6,42.7,148.4,42.5,148.1,42.5z"></path> <path class="st1" d="M48.1,3.1L35.6,21.7c-0.9,1.3,0.8,2.8,2,1.7l12.3-10.7c0.3-0.3,0.8-0.1,0.8,0.4v33.5c0,0.5-0.6,0.7-0.9,0.3 L12.5,2.3C11.3,0.8,9.6,0,7.7,0H6.3C2.9,0,0,2.9,0,6.4v47.2C0,57.1,2.9,60,6.4,60c2.2,0,4.3-1.1,5.5-3.1l12.5-18.6 c0.9-1.3-0.8-2.8-2-1.7L10.1,47.3c-0.3,0.3-0.8,0.1-0.8-0.4V13.4c0-0.5,0.6-0.7,0.9-0.3l37.3,44.7c1.2,1.5,3,2.3,4.9,2.3h1.3 c3.5,0,6.4-2.9,6.4-6.4V6.4C60,2.9,57.1,0,53.6,0C51.4,0,49.3,1.1,48.1,3.1z"></path> </g> </svg> 