<?xml version="1.0" encoding="UTF-8"?> <!-- Generator: Adobe Illustrator 25.0.0, SVG Export Plug-In . SVG Version: 6.00 Build 0) --> <svg xmlns="http://www.w3.org/2000/svg" xmlns:xlink="http://www.w3.org/1999/xlink" version="1.1" id="Layer_1" x="0px" y="0px" viewBox="0 0 177 42" style="enable-background:new 0 0 177 42;" xml:space="preserve"> <style type="text/css"> .st0{clip-path:url(#SVGID_2_);} .st1{fill:#12142B;} </style> <g> <defs> <rect id="SVGID_1_" width="176.9" height="42"></rect> </defs> <clipPath id="SVGID_2_"> <use xlink:href="#SVGID_1_" style="overflow:visible;"></use> </clipPath> <g class="st0"> <path class="st1" d="M41.4,17.7c-1.6,0-3.3,0.4-4.7,1.1c-1.5,0.7-2.7,1.8-3.7,3.1c-2.3,2.8-3.5,6.3-3.4,9.9 c-0.1,2.3,0.6,4.6,2.1,6.3c0.7,0.8,1.6,1.4,2.6,1.8c1,0.4,2,0.6,3.1,0.6c1.6,0,3.1-0.4,4.5-1.1c1.4-0.7,2.6-1.7,3.6-2.9 c2.4-2.9,3.7-6.5,3.7-10.3c0.1-2.2-0.5-4.4-1.8-6.2C46.1,18.5,44.1,17.7,41.4,17.7z M41.6,34.6c-0.5,0.5-1.2,1-1.9,1.3 c-0.7,0.3-1.4,0.5-2.2,0.5c-0.5,0-1-0.1-1.5-0.3c-0.5-0.2-0.9-0.5-1.2-0.9c-0.7-1-1-2.1-1-3.3c-0.1-2.5,0.6-5,2.1-7.1 c0.6-0.9,1.3-1.6,2.3-2.1c0.9-0.5,2-0.8,3-0.7c2.4,0,3.6,1.5,3.6,4.4C44.8,29.3,43.7,32.3,41.6,34.6z M170.4,28.2 c-0.5-0.2-1-0.1-1.5,0.1c-0.5,0.2-0.8,0.6-1,1.1c-1.9,4.7-4.1,7-6.9,7c-1.5,0-2.2-1.3-2.2-3.7c0.2-2.7,0.6-5.4,1.2-8.1l0.6-2.8 h5.7c0.5,0,0.9-0.2,1.3-0.5c0.4-0.3,0.6-0.7,0.7-1.2c0.1-0.3,0.1-0.6,0-0.9c-0.1-0.3-0.2-0.6-0.4-0.8c-0.2-0.2-0.4-0.4-0.7-0.6 c-0.3-0.1-0.6-0.2-0.9-0.2h-4.8l1-4.7c0.1-0.3,0.1-0.6,0-0.9s-0.2-0.6-0.4-0.8c-0.2-0.2-0.4-0.5-0.7-0.6c-0.3-0.1-0.6-0.2-0.9-0.2 c-0.5,0-1,0.2-1.3,0.5c-0.4,0.3-0.6,0.7-0.7,1.2l-1.2,5.5h-13.3c-1.7,0-3.3,0.4-4.8,1.1c-1.5,0.7-2.7,1.8-3.7,3.2 c-2.3,2.8-3.5,6.3-3.4,9.9c0,1,0.1,1.9,0.3,2.9c-0.4,0.5-1,0.9-1.6,1.2s-1.2,0.4-1.9,0.5c-0.3,0-0.7,0-1-0.1 c-0.3-0.1-0.6-0.3-0.8-0.6c-0.4-0.7-0.6-1.6-0.5-2.4c0.1-2.4,0.4-4.8,1-7.1l3.5-16.1c0.1-0.3,0.1-0.6,0-0.8s-0.1-0.5-0.3-0.8 c-0.1-0.2-0.3-0.4-0.6-0.6c-0.2-0.2-0.5-0.3-0.8-0.3c-0.3-0.1-0.6-0.1-0.8,0c-0.3,0-0.5,0.1-0.8,0.3c-0.2,0.1-0.4,0.3-0.6,0.6 c-0.2,0.2-0.3,0.5-0.3,0.8l-2,9.8c-1.4-0.8-3-1.3-4.7-1.3c-1.7,0-3.3,0.3-4.8,1c-1.5,0.7-2.8,1.7-3.9,3c-2.3,2.8-3.6,6.4-3.5,10.1 c0,1.2,0.1,2.3,0.5,3.5c-0.8,0.7-1.9,1.1-2.9,1.1c-0.4,0-0.7,0-1-0.1c-0.3-0.1-0.6-0.3-0.9-0.6c-0.5-0.7-0.7-1.5-0.6-2.4 c0.1-1.6,0.3-3.2,0.7-4.8c0.1-0.3,0.1-0.6,0-0.9c-0.1-0.3-0.2-0.6-0.4-0.8c-0.2-0.2-0.4-0.4-0.7-0.6s-0.6-0.2-0.9-0.3 c-0.5-0.1-1,0.1-1.5,0.4c-0.4,0.3-0.7,0.7-0.9,1.2c-0.6,2.3-1.6,4.4-2.9,6.3c-0.5,0.7-1.1,1.4-1.9,1.8c-0.8,0.4-1.6,0.7-2.5,0.8 c-0.5,0-0.9-0.1-1.3-0.4c-0.4-0.2-0.7-0.6-1-1c-0.6-1.1-0.9-2.3-0.9-3.5c-0.1-2.5,0.6-5,2.1-7c0.6-0.9,1.4-1.6,2.4-2.1 c1-0.5,2-0.7,3.1-0.7c1.1,0,2.2,0.2,3.2,0.7c0.3,0.1,0.6,0.2,1,0.2c0.3,0,0.7-0.1,0.9-0.3c0.3-0.2,0.6-0.5,0.8-0.8 c0.2-0.3,0.3-0.7,0.2-1.1c0-0.4-0.2-0.7-0.4-1.1c-0.2-0.3-0.5-0.6-0.9-0.7c-0.5-0.2-1.1-0.4-1.7-0.5c-1-0.3-2.1-0.4-3.1-0.5 c-1.6,0-3.3,0.3-4.7,1c-1.5,0.7-2.8,1.7-3.8,3c-1.3,1.4-2.2,3.1-2.7,4.9c-2.1,6.6-4.7,9.8-7.9,9.8c-0.5,0-0.9,0-1.3-0.2 c-0.4-0.2-0.8-0.5-1.1-0.8c-0.5-0.8-0.8-1.7-0.7-2.6c0-0.3,0-0.6,0.1-0.9c1.9-0.8,3.6-2,4.9-3.7c1.2-1.6,1.9-3.5,1.9-5.5 c0-3.3-1.8-5-5.5-5c-1.3,0-2.5,0.2-3.7,0.7c-1.2,0.5-2.2,1.2-3.1,2.1L71,9.9c0.1-0.3,0.1-0.6,0-0.9c-0.1-0.3-0.2-0.6-0.4-0.8 c-0.2-0.2-0.4-0.4-0.7-0.6c-0.3-0.1-0.6-0.2-0.9-0.2c-0.5,0-1,0.2-1.3,0.5C67.3,8.1,67,8.6,66.9,9l-6.2,28.9 c-0.1,0.3-0.1,0.6,0,0.9c0.1,0.3,0.2,0.6,0.4,0.8c0.2,0.2,0.4,0.4,0.7,0.6c0.3,0.1,0.6,0.2,0.9,0.2c0.5,0,0.9-0.2,1.3-0.5 c0.4-0.3,0.6-0.7,0.7-1.2l1.9-8.9c0.3-1.2,0.8-2.3,1.3-3.4c0.7-1.2,1.7-2.3,2.8-3.2c1.2-1,2.7-1.6,4.2-1.5c0.2,0,0.4,0,0.6,0.1 c0.2,0.1,0.4,0.2,0.6,0.3c0.2,0.2,0.3,0.3,0.3,0.6c0.1,0.2,0.1,0.4,0.1,0.6c-0.1,0.7-0.3,1.4-0.6,2c-0.3,0.6-0.8,1.1-1.4,1.5 c-1.2,1.1-2.7,1.8-4.3,2.1c-0.1,1.3-0.2,2.2-0.2,2.7c-0.1,2.3,0.5,4.6,1.9,6.4c0.6,0.8,1.4,1.4,2.4,1.8c0.9,0.4,1.9,0.6,3,0.5 c1.4,0,2.8-0.3,4-1c1.3-0.6,2.4-1.5,3.2-2.6l0.8-1c0.3,0.8,0.7,1.5,1.3,2.1c0.6,0.8,1.5,1.4,2.4,1.8c0.9,0.4,1.9,0.6,2.9,0.6 c2.9,0,5.3-1.3,7.3-4.1c0.9,2.8,2.9,4.1,6.2,4.1c1.9,0,3.7-0.7,5.1-1.9c1.3,1.2,3,1.9,4.8,1.8c2.9,0,5.3-1.3,7.3-4.1 c0.9,2.8,2.9,4.1,6.2,4.1c2.1,0,4.2-0.8,5.7-2.2c0.7,0.7,1.5,1.3,2.5,1.7c0.9,0.4,1.9,0.6,2.9,0.5c1.6,0,3.1-0.4,4.5-1.1 c1.4-0.7,2.6-1.7,3.6-2.9c2.4-2.9,3.7-6.5,3.7-10.3c0-1.5-0.2-3-0.8-4.5h5.5l-0.5,2.4c-0.7,2.8-1.1,5.6-1.3,8.5 c0,5.2,2.1,7.9,6.3,7.9c4.8,0,8.3-3.2,10.9-9.5c0.1-0.2,0.2-0.5,0.2-0.8c0-0.3-0.1-0.5-0.2-0.8c-0.1-0.2-0.3-0.5-0.5-0.6 C170.9,28.4,170.7,28.3,170.4,28.2z M123.2,25.7c-0.7,3.7-1.9,6.3-3.3,8.1c-1.4,1.7-2.9,2.6-4.5,2.6c-0.5,0-0.9-0.1-1.3-0.4 c-0.4-0.2-0.7-0.6-1-1c-0.6-1.1-0.9-2.2-0.9-3.5c-0.1-2.5,0.6-5,2.1-7c0.5-0.7,1.1-1.4,1.9-1.9c0.8-0.5,1.6-0.8,2.5-0.9 c0.9-0.1,1.8,0,2.6,0.2c0.9,0.3,1.6,0.7,2.3,1.3L123.2,25.7z M146.4,30.7c-0.6,1.4-1.4,2.7-2.4,3.9c-0.5,0.6-1.2,1-1.9,1.3 c-0.7,0.3-1.5,0.5-2.2,0.5c-0.5,0-1-0.1-1.5-0.3c-0.5-0.2-0.9-0.5-1.2-0.9c-0.7-1-1-2.1-1-3.3c-0.1-2.5,0.6-5,2.1-7.1 c0.6-0.9,1.3-1.6,2.3-2.1c0.9-0.5,2-0.8,3-0.8c2.4,0,3.6,1.5,3.6,4.4C147.2,27.8,146.9,29.3,146.4,30.7L146.4,30.7z M59.5,7.4 c-0.5,0-1,0.2-1.3,0.5s-0.6,0.7-0.7,1.2L51.2,38c-0.1,0.3-0.1,0.6,0,0.9c0.1,0.3,0.2,0.6,0.4,0.8c0.2,0.2,0.4,0.4,0.7,0.6 c0.3,0.1,0.6,0.2,0.9,0.2c0.5,0,1-0.2,1.3-0.5c0.4-0.3,0.6-0.7,0.7-1.2l6.2-28.9c0.1-0.3,0-0.6,0-0.9c-0.1-0.3-0.2-0.6-0.4-0.8 c-0.2-0.2-0.4-0.4-0.7-0.6C60.1,7.5,59.8,7.4,59.5,7.4z M15.2,1c-4,0-7.9,1.6-10.7,4.5C1.6,8.3,0,12.2,0,16.2 c0,1.7,0.3,3.3,0.8,4.9c0.2,0.5,0.6,0.9,1.1,1.2c0.5,0.2,1.1,0.3,1.6,0.1c0.5-0.2,0.9-0.6,1.2-1.1c0.2-0.5,0.3-1.1,0.1-1.6 c-0.5-1.2-0.7-2.6-0.6-3.9c0.1-2.1,0.7-4.2,2-5.9C7.3,8.2,9,6.9,11,6.1c2-0.8,4.1-1,6.2-0.6c2.1,0.4,4,1.4,5.5,2.9 c1.5,1.5,2.6,3.4,3.1,5.4c0.5,2.1,0.3,4.2-0.4,6.2c-0.7,2-2,3.7-3.7,5c-1.7,1.3-3.7,2-5.9,2.1c0,0-2.1,0.1-3.2,0.3 c-0.4,0.1-0.8,0.1-1.2,0.2c0,0-0.1,0-0.1,0c0,0-0.1,0-0.1,0c0,0,0-0.1,0-0.1c0,0,0-0.1,0-0.1l0.3-1.8l2-9.1c0.1-0.5,0-1.1-0.3-1.6 s-0.8-0.8-1.3-0.9c-0.5-0.1-1.1,0-1.6,0.3c-0.5,0.3-0.8,0.8-0.9,1.3c0,0-4.8,22.1-4.8,22.3c-0.1,0.3-0.1,0.5,0,0.8 c0,0.3,0.1,0.5,0.3,0.8c0.1,0.2,0.3,0.4,0.6,0.6c0.2,0.2,0.5,0.3,0.8,0.3c0.3,0.1,0.5,0.1,0.8,0c0.3,0,0.5-0.1,0.8-0.3 c0.2-0.1,0.4-0.3,0.6-0.6c0.2-0.2,0.3-0.5,0.3-0.8c0.1-0.3,0.7-3.2,0.7-3.2c0.2-1.1,0.8-2.1,1.6-2.8c0.8-0.8,1.8-1.3,2.9-1.4 c0.5-0.1,2.4-0.2,2.4-0.2c3.9-0.4,7.4-2.2,10-5.1c2.6-2.9,3.9-6.7,3.8-10.6c-0.1-3.9-1.8-7.5-4.5-10.3C22.8,2.6,19.1,1.1,15.2,1 L15.2,1z"></path> <path class="st1" d="M174.9,36c-0.3-0.1-0.7-0.1-1,0c-0.3,0.1-0.6,0.2-0.9,0.4c-0.3,0.2-0.5,0.4-0.7,0.7c-0.2,0.3-0.3,0.6-0.4,0.9 c-0.1,0.3-0.1,0.7,0,1c0.1,0.3,0.2,0.6,0.4,0.9c0.2,0.3,0.4,0.5,0.7,0.7c0.3,0.2,0.6,0.3,0.9,0.4c0.3,0.1,0.7,0.1,1,0 c0.3-0.1,0.6-0.2,0.9-0.4c0.3-0.2,0.5-0.4,0.7-0.7c0.2-0.3,0.3-0.6,0.4-0.9c0.1-0.7,0-1.3-0.4-1.9C176.1,36.5,175.5,36.1,174.9,36 z"></path> </g> </g> </svg> 