<?xml version="1.0" encoding="UTF-8"?> <!-- Generator: Adobe Illustrator 25.0.0, SVG Export Plug-In . SVG Version: 6.00 Build 0) --> <svg xmlns="http://www.w3.org/2000/svg" xmlns:xlink="http://www.w3.org/1999/xlink" version="1.1" id="Layer_1" x="0px" y="0px" viewBox="0 0 420 144.8" style="enable-background:new 0 0 420 144.8;" xml:space="preserve"> <style type="text/css"> .st0{fill:#15182B;} </style> <g> <g> <g> <g> <path id="SVGID_1_" class="st0" d="M76.4,30.9c-5.8,3.4-9.4,9.6-9.4,16.3c0,3.6,1.3,7,3,10.1c1.4,2.6,2.1,7.5-2.7,10.2 c-3.6,2.1-8,0.8-10.2-2.8c-1.9-3-4.1-5.8-7.3-7.6c-5.8-3.4-13-3.4-18.8,0s-9.4,9.6-9.4,16.3c0,6.7,3.6,12.9,9.4,16.3 s13,3.4,18.8,0c3.2-1.8,5.4-4.6,7.3-7.6c1.5-2.5,5.4-5.6,10.2-2.8c3.5,2.1,4.6,6.5,2.7,10.2c-1.7,3.1-3,6.5-3,10.1 c0,6.7,3.6,12.9,9.4,16.3s13,3.4,18.8,0c5.8-3.4,9.4-9.6,9.4-16.3c0-6.7-3.6-12.9-9.4-16.3c-3.2-1.8-6.8-2.4-10.3-2.5 c-3-0.1-7.4-2-7.4-7.4c0-4,3.3-7.3,7.4-7.4c3.6-0.1,7.1-0.7,10.3-2.5c5.8-3.4,9.4-9.6,9.4-16.3s-3.6-12.9-9.4-16.3 c-2.9-1.7-6.2-2.5-9.4-2.5C82.5,28.4,79.3,29.3,76.4,30.9"></path> </g> </g> </g> </g> <g> <path class="st0" d="M394.2,49.1c-2.4,0-4.3-1.9-4.3-4.3c0-2.4,1.9-4.3,4.3-4.3s4.3,1.9,4.3,4.3C398.5,47.2,396.6,49.1,394.2,49.1 M394.2,41c-2.1,0-3.7,1.6-3.7,3.7c0,2,1.7,3.7,3.7,3.7c2.1,0,3.7-1.7,3.7-3.7C397.9,42.7,396.2,41,394.2,41 M395.4,47.3l-1.3-2 h-0.9v2h-0.7v-5h2c0.8,0,1.6,0.6,1.6,1.5c0,1.1-1,1.5-1.3,1.5l1.3,2H395.4z M394.5,42.9h-1.4v1.8h1.4c0.4,0,0.9-0.4,0.9-0.9 S395,42.9,394.5,42.9"></path> <path class="st0" d="M156.3,62.4c-1-0.3-3-0.5-5.1-0.5c-6.2,0-12.8,5-12.8,11.2v29.5h-14.1V50h13.6v5.3c3.1-3.9,8.9-6.4,15.3-6.4 c2.1,0,3.3,0.2,4.8,0.4L156.3,62.4z"></path> <path class="st0" d="M172.3,22.3c5.1,0,9.2,3.9,9.2,9s-4.1,9-9.2,9c-5.1,0-9.2-3.9-9.2-9S167.2,22.3,172.3,22.3 M179.4,102.6h-14.1 V50h14.1V102.6z"></path> <path class="st0" d="M221.1,48.9c-6,0-11.3,2-15.4,5.3V50h-13.6v78.7h14.1V98.9c4.2,3.3,8.8,4.8,14.1,4.8c7.8,0,15.3-3.5,20-8.9 c4.1-4.8,6.6-11.3,6.6-18.5C246.9,60.8,235.4,48.9,221.1,48.9 M219.4,90.9c-8.8,0-14.5-6.1-14.5-14.5s5.8-14.5,14.5-14.5 c7.5,0,13.6,6.5,13.6,14.5C232.9,84.4,226.8,90.9,219.4,90.9"></path> <rect x="318.5" y="25.5" class="st0" width="14.1" height="77.1"></rect> <path class="st0" d="M390.2,94.3c-5.1,6.1-13.5,9.4-21.6,9.4c-15.7,0-27.6-10.9-27.6-27.4c0-14.7,10-27.5,25.6-27.5 c14.6,0,24.9,12.3,24.9,26.9c0,1.4-0.1,2.8-0.3,4h-36.5c0.8,7.4,6.7,12.5,14.2,12.5c6,0,10.8-3.4,13.2-6.1L390.2,94.3z M377,69.5 c-0.4-4.7-4.7-9.2-10.4-9.2c-5.9,0-10.6,4.5-11.3,9.2H377z"></path> <path class="st0" d="M284.3,48.9c-6,0-11.3,2-15.4,5.3V50h-13.6v78.7h14.1V98.9c4.2,3.3,8.8,4.8,14.1,4.8c7.8,0,15.3-3.5,20-8.9 c4.1-4.8,6.6-11.3,6.6-18.5C310.1,60.8,298.6,48.9,284.3,48.9 M282.6,90.9c-8.8,0-14.5-6.1-14.5-14.5s5.8-14.5,14.5-14.5 c7.5,0,13.6,6.5,13.6,14.5C296.1,84.4,290,90.9,282.6,90.9"></path> </g> </svg> 